<mxfile host="app.diagrams.net" agent="Mozilla/5.0 (Windows NT 10.0; Win64; x64) AppleWebKit/537.36 (KHTML, like Gecko) Chrome/136.0.0.0 Safari/537.36" version="27.0.6">
  <diagram name="PaginÄƒ-1" id="LKRDkQZqiJKRfrPrVaId">
    <mxGraphModel dx="1281" dy="692" grid="1" gridSize="10" guides="1" tooltips="1" connect="1" arrows="1" fold="1" page="1" pageScale="1" pageWidth="827" pageHeight="1169" math="0" shadow="0">
      <root>
        <mxCell id="0" />
        <mxCell id="1" parent="0" />
        <mxCell id="lfKBYWB1ujGBF2fvtdGZ-1" value="&lt;font style=&quot;font-size: 20px;&quot;&gt;User&lt;/font&gt;" style="shape=umlActor;verticalLabelPosition=bottom;verticalAlign=top;html=1;outlineConnect=0;" vertex="1" parent="1">
          <mxGeometry x="40" y="350" width="50" height="80" as="geometry" />
        </mxCell>
        <mxCell id="lfKBYWB1ujGBF2fvtdGZ-2" value="&lt;font style=&quot;font-size: 19px;&quot;&gt;Manage Products&lt;/font&gt;" style="ellipse;whiteSpace=wrap;html=1;" vertex="1" parent="1">
          <mxGeometry x="130" y="80" width="180" height="60" as="geometry" />
        </mxCell>
        <mxCell id="lfKBYWB1ujGBF2fvtdGZ-3" value="&lt;font style=&quot;font-size: 19px;&quot;&gt;Manage Clients&lt;/font&gt;" style="ellipse;whiteSpace=wrap;html=1;" vertex="1" parent="1">
          <mxGeometry x="130" y="370" width="180" height="60" as="geometry" />
        </mxCell>
        <mxCell id="lfKBYWB1ujGBF2fvtdGZ-4" value="&lt;font style=&quot;font-size: 19px;&quot;&gt;Manage Order&lt;/font&gt;" style="ellipse;whiteSpace=wrap;html=1;" vertex="1" parent="1">
          <mxGeometry x="130" y="720" width="180" height="60" as="geometry" />
        </mxCell>
        <mxCell id="lfKBYWB1ujGBF2fvtdGZ-5" style="edgeStyle=orthogonalEdgeStyle;rounded=0;orthogonalLoop=1;jettySize=auto;html=1;entryX=0;entryY=0.5;entryDx=0;entryDy=0;exitX=1;exitY=0.3333333333333333;exitDx=0;exitDy=0;exitPerimeter=0;" edge="1" parent="1" source="lfKBYWB1ujGBF2fvtdGZ-1" target="lfKBYWB1ujGBF2fvtdGZ-2">
          <mxGeometry relative="1" as="geometry">
            <mxPoint x="140" y="320" as="sourcePoint" />
            <mxPoint x="690" y="320" as="targetPoint" />
          </mxGeometry>
        </mxCell>
        <mxCell id="lfKBYWB1ujGBF2fvtdGZ-6" style="edgeStyle=orthogonalEdgeStyle;rounded=0;orthogonalLoop=1;jettySize=auto;html=1;entryX=0;entryY=0.5;entryDx=0;entryDy=0;exitX=1;exitY=0.3333333333333333;exitDx=0;exitDy=0;exitPerimeter=0;" edge="1" parent="1" source="lfKBYWB1ujGBF2fvtdGZ-1" target="lfKBYWB1ujGBF2fvtdGZ-3">
          <mxGeometry relative="1" as="geometry">
            <mxPoint x="180" y="517" as="sourcePoint" />
            <mxPoint x="220" y="280" as="targetPoint" />
          </mxGeometry>
        </mxCell>
        <mxCell id="lfKBYWB1ujGBF2fvtdGZ-7" style="edgeStyle=orthogonalEdgeStyle;rounded=0;orthogonalLoop=1;jettySize=auto;html=1;entryX=0;entryY=0.5;entryDx=0;entryDy=0;exitX=1;exitY=0.3333333333333333;exitDx=0;exitDy=0;exitPerimeter=0;" edge="1" parent="1" source="lfKBYWB1ujGBF2fvtdGZ-1" target="lfKBYWB1ujGBF2fvtdGZ-4">
          <mxGeometry relative="1" as="geometry">
            <mxPoint x="180" y="497" as="sourcePoint" />
            <mxPoint x="220" y="260" as="targetPoint" />
          </mxGeometry>
        </mxCell>
        <mxCell id="lfKBYWB1ujGBF2fvtdGZ-8" value="&lt;font style=&quot;font-size: 19px;&quot;&gt;Delete&lt;/font&gt;" style="ellipse;whiteSpace=wrap;html=1;" vertex="1" parent="1">
          <mxGeometry x="414" y="60" width="90" height="40" as="geometry" />
        </mxCell>
        <mxCell id="lfKBYWB1ujGBF2fvtdGZ-10" value="&lt;font style=&quot;font-size: 19px;&quot;&gt;Update&lt;/font&gt;" style="ellipse;whiteSpace=wrap;html=1;" vertex="1" parent="1">
          <mxGeometry x="414" y="110" width="90" height="40" as="geometry" />
        </mxCell>
        <mxCell id="lfKBYWB1ujGBF2fvtdGZ-11" value="&lt;font style=&quot;font-size: 19px;&quot;&gt;View All&lt;/font&gt;" style="ellipse;whiteSpace=wrap;html=1;" vertex="1" parent="1">
          <mxGeometry x="414" y="160" width="90" height="40" as="geometry" />
        </mxCell>
        <mxCell id="lfKBYWB1ujGBF2fvtdGZ-12" value="&lt;font style=&quot;font-size: 19px;&quot;&gt;Add&lt;/font&gt;" style="ellipse;whiteSpace=wrap;html=1;" vertex="1" parent="1">
          <mxGeometry x="414" y="10" width="90" height="40" as="geometry" />
        </mxCell>
        <mxCell id="lfKBYWB1ujGBF2fvtdGZ-13" style="edgeStyle=orthogonalEdgeStyle;rounded=0;orthogonalLoop=1;jettySize=auto;html=1;exitX=1;exitY=0.5;exitDx=0;exitDy=0;entryX=0;entryY=0.5;entryDx=0;entryDy=0;" edge="1" parent="1" source="lfKBYWB1ujGBF2fvtdGZ-2" target="lfKBYWB1ujGBF2fvtdGZ-12">
          <mxGeometry relative="1" as="geometry">
            <mxPoint x="360" y="317" as="sourcePoint" />
            <mxPoint x="350" y="20" as="targetPoint" />
          </mxGeometry>
        </mxCell>
        <mxCell id="lfKBYWB1ujGBF2fvtdGZ-14" style="edgeStyle=orthogonalEdgeStyle;rounded=0;orthogonalLoop=1;jettySize=auto;html=1;exitX=1;exitY=0.5;exitDx=0;exitDy=0;entryX=0;entryY=0.5;entryDx=0;entryDy=0;" edge="1" parent="1" source="lfKBYWB1ujGBF2fvtdGZ-2" target="lfKBYWB1ujGBF2fvtdGZ-8">
          <mxGeometry relative="1" as="geometry">
            <mxPoint x="430" y="320" as="sourcePoint" />
            <mxPoint x="534" y="240" as="targetPoint" />
          </mxGeometry>
        </mxCell>
        <mxCell id="lfKBYWB1ujGBF2fvtdGZ-15" style="edgeStyle=orthogonalEdgeStyle;rounded=0;orthogonalLoop=1;jettySize=auto;html=1;exitX=1;exitY=0.5;exitDx=0;exitDy=0;entryX=0;entryY=0.5;entryDx=0;entryDy=0;" edge="1" parent="1" source="lfKBYWB1ujGBF2fvtdGZ-2" target="lfKBYWB1ujGBF2fvtdGZ-10">
          <mxGeometry relative="1" as="geometry">
            <mxPoint x="500" y="410" as="sourcePoint" />
            <mxPoint x="604" y="330" as="targetPoint" />
          </mxGeometry>
        </mxCell>
        <mxCell id="lfKBYWB1ujGBF2fvtdGZ-16" style="edgeStyle=orthogonalEdgeStyle;rounded=0;orthogonalLoop=1;jettySize=auto;html=1;exitX=1;exitY=0.5;exitDx=0;exitDy=0;entryX=0;entryY=0.5;entryDx=0;entryDy=0;" edge="1" parent="1" source="lfKBYWB1ujGBF2fvtdGZ-2" target="lfKBYWB1ujGBF2fvtdGZ-11">
          <mxGeometry relative="1" as="geometry">
            <mxPoint x="550" y="460" as="sourcePoint" />
            <mxPoint x="654" y="380" as="targetPoint" />
          </mxGeometry>
        </mxCell>
        <mxCell id="lfKBYWB1ujGBF2fvtdGZ-19" value="&lt;font style=&quot;font-size: 19px;&quot;&gt;Delete&lt;/font&gt;" style="ellipse;whiteSpace=wrap;html=1;" vertex="1" parent="1">
          <mxGeometry x="414" y="355" width="90" height="40" as="geometry" />
        </mxCell>
        <mxCell id="lfKBYWB1ujGBF2fvtdGZ-20" value="&lt;font style=&quot;font-size: 19px;&quot;&gt;Update&lt;/font&gt;" style="ellipse;whiteSpace=wrap;html=1;" vertex="1" parent="1">
          <mxGeometry x="414" y="405" width="90" height="40" as="geometry" />
        </mxCell>
        <mxCell id="lfKBYWB1ujGBF2fvtdGZ-21" value="&lt;font style=&quot;font-size: 19px;&quot;&gt;View All&lt;/font&gt;" style="ellipse;whiteSpace=wrap;html=1;" vertex="1" parent="1">
          <mxGeometry x="414" y="455" width="90" height="40" as="geometry" />
        </mxCell>
        <mxCell id="lfKBYWB1ujGBF2fvtdGZ-22" value="&lt;font style=&quot;font-size: 19px;&quot;&gt;Add&lt;/font&gt;" style="ellipse;whiteSpace=wrap;html=1;" vertex="1" parent="1">
          <mxGeometry x="414" y="305" width="90" height="40" as="geometry" />
        </mxCell>
        <mxCell id="lfKBYWB1ujGBF2fvtdGZ-23" style="edgeStyle=orthogonalEdgeStyle;rounded=0;orthogonalLoop=1;jettySize=auto;html=1;exitX=1;exitY=0.5;exitDx=0;exitDy=0;entryX=0;entryY=0.5;entryDx=0;entryDy=0;" edge="1" parent="1" target="lfKBYWB1ujGBF2fvtdGZ-22" source="lfKBYWB1ujGBF2fvtdGZ-3">
          <mxGeometry relative="1" as="geometry">
            <mxPoint x="330" y="405" as="sourcePoint" />
            <mxPoint x="370" y="315" as="targetPoint" />
          </mxGeometry>
        </mxCell>
        <mxCell id="lfKBYWB1ujGBF2fvtdGZ-24" style="edgeStyle=orthogonalEdgeStyle;rounded=0;orthogonalLoop=1;jettySize=auto;html=1;exitX=1;exitY=0.5;exitDx=0;exitDy=0;entryX=0;entryY=0.5;entryDx=0;entryDy=0;" edge="1" parent="1" target="lfKBYWB1ujGBF2fvtdGZ-19" source="lfKBYWB1ujGBF2fvtdGZ-3">
          <mxGeometry relative="1" as="geometry">
            <mxPoint x="330" y="405" as="sourcePoint" />
            <mxPoint x="554" y="535" as="targetPoint" />
          </mxGeometry>
        </mxCell>
        <mxCell id="lfKBYWB1ujGBF2fvtdGZ-25" style="edgeStyle=orthogonalEdgeStyle;rounded=0;orthogonalLoop=1;jettySize=auto;html=1;exitX=1;exitY=0.5;exitDx=0;exitDy=0;entryX=0;entryY=0.5;entryDx=0;entryDy=0;" edge="1" parent="1" target="lfKBYWB1ujGBF2fvtdGZ-20" source="lfKBYWB1ujGBF2fvtdGZ-3">
          <mxGeometry relative="1" as="geometry">
            <mxPoint x="330" y="405" as="sourcePoint" />
            <mxPoint x="624" y="625" as="targetPoint" />
          </mxGeometry>
        </mxCell>
        <mxCell id="lfKBYWB1ujGBF2fvtdGZ-26" style="edgeStyle=orthogonalEdgeStyle;rounded=0;orthogonalLoop=1;jettySize=auto;html=1;exitX=1;exitY=0.5;exitDx=0;exitDy=0;entryX=0;entryY=0.5;entryDx=0;entryDy=0;" edge="1" parent="1" target="lfKBYWB1ujGBF2fvtdGZ-21" source="lfKBYWB1ujGBF2fvtdGZ-3">
          <mxGeometry relative="1" as="geometry">
            <mxPoint x="330" y="405" as="sourcePoint" />
            <mxPoint x="674" y="675" as="targetPoint" />
          </mxGeometry>
        </mxCell>
        <mxCell id="lfKBYWB1ujGBF2fvtdGZ-27" value="&lt;font style=&quot;font-size: 19px;&quot;&gt;Create&lt;/font&gt;" style="ellipse;whiteSpace=wrap;html=1;" vertex="1" parent="1">
          <mxGeometry x="390" y="730" width="90" height="40" as="geometry" />
        </mxCell>
        <mxCell id="lfKBYWB1ujGBF2fvtdGZ-28" style="edgeStyle=orthogonalEdgeStyle;rounded=0;orthogonalLoop=1;jettySize=auto;html=1;exitX=1;exitY=0.5;exitDx=0;exitDy=0;entryX=0;entryY=0.5;entryDx=0;entryDy=0;" edge="1" parent="1" source="lfKBYWB1ujGBF2fvtdGZ-4" target="lfKBYWB1ujGBF2fvtdGZ-27">
          <mxGeometry relative="1" as="geometry">
            <mxPoint x="430" y="600" as="sourcePoint" />
            <mxPoint x="390" y="800" as="targetPoint" />
          </mxGeometry>
        </mxCell>
      </root>
    </mxGraphModel>
  </diagram>
</mxfile>
